SplineFontDB: 3.0
FontName: Techna-Regular
FullName: Techna Regular
FamilyName: Techna
Weight: Regular
Copyright: Copyright (c) 2019, Carl Enlund
UComments: "2019-5-11: Created with FontForge (http://fontforge.org)"
Version: 001.000
ItalicAngle: 0
UnderlinePosition: -100
UnderlineWidth: 50
Ascent: 800
Descent: 200
InvalidEm: 0
LayerCount: 2
Layer: 0 0 "Back" 1
Layer: 1 0 "Fore" 0
XUID: [1021 637 837473831 1446149]
FSType: 0
OS2Version: 0
OS2_WeightWidthSlopeOnly: 0
OS2_UseTypoMetrics: 1
CreationTime: 1557605594
ModificationTime: 1558731399
PfmFamily: 17
TTFWeight: 400
TTFWidth: 5
LineGap: 90
VLineGap: 0
OS2TypoAscent: 0
OS2TypoAOffset: 1
OS2TypoDescent: 0
OS2TypoDOffset: 1
OS2TypoLinegap: 0
OS2WinAscent: 0
OS2WinAOffset: 1
OS2WinDescent: 0
OS2WinDOffset: 1
HheadAscent: 0
HheadAOffset: 1
HheadDescent: 0
HheadDOffset: 1
OS2Vendor: 'PfEd'
Lookup: 258 0 0 "'kern' Horizontal Kerning in Latin lookup 0" { "'kern' Horizontal Kerning in Latin lookup 0-1" [150,15,0] } ['kern' ('DFLT' <'dflt' > 'latn' <'dflt' > ) ]
MarkAttachClasses: 1
DEI: 91125
LangName: 1033
Encoding: ISO8859-1
Compacted: 1
UnicodeInterp: none
NameList: AGL For New Fonts
DisplaySize: -72
AntiAlias: 1
FitToEm: 0
WinInfo: 0 25 19
BeginPrivate: 0
EndPrivate
Grid
-1000 688 m 0
 2000 688 l 1024
-976 -165 m 0
 2024 -165 l 1024
-1021.83337402 1300 m 0
 -1021.83337402 -700 l 1024
-1000 503 m 0
 2000 503 l 1024
-1000 413.916992188 m 0
 2000 413.916992188 l 1024
-1000 718 m 0
 2000 718 l 1024
EndSplineSet
BeginChars: 256 67

StartChar: D
Encoding: 68 68 0
Width: 695
VWidth: 0
Flags: HW
LayerCount: 2
Fore
SplineSet
322 121 m 5
 322 0 l 5
 142 0 l 1
 142 121 l 1
 322 121 l 5
332 688 m 5
 326 567 l 5
 142 567 l 1
 142 688 l 1
 332 688 l 5
60 0 m 1
 60 688 l 1
 194 688 l 1
 194 0 l 1
 60 0 l 1
332 688 m 5
 555.106733588 688 675 540.865234375 675 350 c 3
 675 152.017578125 551.669727554 0 322 0 c 5
 322 121 l 5
 469.964969758 121 542 221.337890625 542 346 c 3
 542 468.446289062 471.274537853 567 326 567 c 5
 332 688 l 5
EndSplineSet
EndChar

StartChar: E
Encoding: 69 69 1
Width: 553
VWidth: 0
Flags: HW
LayerCount: 2
Fore
SplineSet
125 412.916992188 m 1
 455 412.916992188 l 1
 423 293 l 1
 123 292.916992188 l 1
 125 412.916992188 l 1
125 123 m 1
 515 123 l 1
 548 0 l 1
 125 0 l 1
 125 123 l 1
125 688 m 1
 525 688 l 1
 493 565 l 1
 125 565 l 1
 125 688 l 1
60 0 m 1
 60 688 l 1
 194 688 l 1
 194 0 l 1
 60 0 l 1
EndSplineSet
EndChar

StartChar: C
Encoding: 67 67 2
Width: 614
VWidth: 0
Flags: HW
LayerCount: 2
Fore
SplineSet
561 545 m 1
 529 556 480 570 413 570 c 3
 301 570 154 519.6925825 154 347 c 3
 154 177.723848545 288 113 421 113 c 3
 485 113 547 127 589 146 c 5
 589 18 l 5
 556.762105083 4.037109375 492.828382555 -11 413 -11 c 3
 237.42578125 -11 20 72.3076171875 20 343 c 3
 20 629.174804688 263.901367188 697 432 697 c 3
 507.048549107 697 567.306989397 681.842329546 594 673 c 1
 561 545 l 1
EndSplineSet
EndChar

StartChar: G
Encoding: 71 71 3
Width: 700
VWidth: 0
Flags: HW
LayerCount: 2
Fore
SplineSet
594 541 m 1
 568 550.310344828 497 571 420 571 c 3
 304.763006203 571 154 523.383840415 154 347 c 3
 154 177.000446188 285.142143004 112 431 112 c 3
 493 112 562.653846154 128.593406593 594 145 c 1
 642 16 l 1
 606.495412844 7.0989010989 502.940366972 -11 427 -11 c 3
 230.551980198 -11 20 72.7607421875 20 343 c 3
 20 630 266.224609375 697 431 697 c 3
 527.097421875 697 594.650429688 680 627 670 c 1
 594 541 l 1
513 16 m 1
 513 355 l 5
 642 355 l 5
 642 16 l 1
 513 16 l 1
368 405 m 5
 642 405 l 5
 642 286 l 5
 337 286 l 5
 368 405 l 5
EndSplineSet
EndChar

StartChar: T
Encoding: 84 84 4
Width: 563
VWidth: 0
Flags: HW
LayerCount: 2
Fore
SplineSet
559 688 m 5
 559 565 l 5
 -4 565 l 5
 28 688 l 5
 559 688 l 5
222 0 m 1
 222 639 l 1
 356 639 l 1
 356 0 l 1
 222 0 l 1
EndSplineSet
EndChar

StartChar: H
Encoding: 72 72 5
Width: 646
VWidth: 0
Flags: HW
LayerCount: 2
Fore
SplineSet
121 413.916992188 m 1
 527 413.916992188 l 5
 527 291 l 5
 121 290.916992188 l 1
 121 413.916992188 l 1
452 0 m 5
 452 688 l 5
 586 688 l 5
 586 0 l 5
 452 0 l 5
60 0 m 1
 60 688 l 1
 194 688 l 1
 194 0 l 1
 60 0 l 1
EndSplineSet
EndChar

StartChar: N
Encoding: 78 78 6
Width: 646
VWidth: 0
Flags: HW
LayerCount: 2
Fore
SplineSet
103 653 m 1
 189 688 l 1
 217 688 l 1
 556 35 l 5
 471 0 l 5
 443 0 l 5
 103 653 l 1
452 0 m 5
 452 688 l 5
 586 688 l 5
 586 0 l 5
 452 0 l 5
60 0 m 1
 60 688 l 1
 194 688 l 1
 194 0 l 1
 60 0 l 1
EndSplineSet
EndChar

StartChar: A
Encoding: 65 65 7
Width: 631
VWidth: 0
Flags: HW
LayerCount: 2
Fore
SplineSet
482 0 m 1
 281 688 l 1
 414 688 l 1
 623 0 l 1
 482 0 l 1
8 0 m 1
 221 688 l 1
 350 688 l 1
 145 0 l 5
 8 0 l 1
119 275 m 1
 513 275 l 1
 513 158 l 1
 119 158 l 1
 119 275 l 1
EndSplineSet
EndChar

StartChar: B
Encoding: 66 66 8
Width: 589
VWidth: 0
Flags: HW
LayerCount: 2
Fore
SplineSet
332 118 m 1
 338 0 l 1
 142 0 l 1
 142 118 l 1
 332 118 l 1
401 406 m 1
 401 291 l 1
 142 291 l 1
 142 406 l 1
 401 406 l 1
352 373 m 1
 480.846938776 373 559 294.446742869 559 196 c 7
 559 82.578680203 479.991500785 0 338 0 c 1
 332 118 l 1
 392.474624748 118 422 156.797219016 422 205 c 3
 422 252.6484375 392.474624748 291 332 291 c 1
 352 373 l 1
338 688 m 1
 326 568 l 1
 142 568 l 1
 142 688 l 1
 338 688 l 1
60 0 m 1
 60 688 l 1
 194 688 l 1
 194 0 l 1
 60 0 l 1
338 688 m 1
 471.01953125 688 541 606.537142857 541 512 c 7
 541 415.584072672 478.049180328 344 361 344 c 1
 326 406 l 1
 378.526296593 406 407 440.121439119 407 487 c 3
 407 533.903271484 378.526296593 568 326 568 c 1
 338 688 l 1
EndSplineSet
EndChar

StartChar: F
Encoding: 70 70 9
Width: 525
VWidth: 0
Flags: HW
LayerCount: 2
Fore
SplineSet
125 406.916992188 m 5
 451 406.916992188 l 5
 419 286 l 5
 125 286 l 5
 125 406.916992188 l 5
  Spiro
    125 406.917 v
    451 406.917 v
    419 286 v
    125 286 v
    0 0 z
  EndSpiro
125 688 m 1
 525 688 l 1
 492 565 l 1
 125 565 l 1
 125 688 l 1
60 0 m 1
 60 688 l 1
 194 688 l 1
 194 0 l 1
 60 0 l 1
  Spiro
    60 0 v
    60 688 v
    194 688 v
    194 0 v
    0 0 z
  EndSpiro
EndSplineSet
EndChar

StartChar: I
Encoding: 73 73 10
Width: 264
VWidth: 0
Flags: HW
LayerCount: 2
Fore
SplineSet
65 0 m 1
 65 688 l 1
 199 688 l 1
 199 0 l 1
 65 0 l 1
EndSplineSet
EndChar

StartChar: L
Encoding: 76 76 11
Width: 517
VWidth: 0
Flags: HW
LayerCount: 2
Fore
SplineSet
60 0 m 1
 60 688 l 1
 194 688 l 1
 194 0 l 1
 60 0 l 1
125 0 m 1
 125 123 l 1
 517 123 l 1
 486 0 l 1
 125 0 l 1
EndSplineSet
EndChar

StartChar: M
Encoding: 77 77 12
Width: 751
VWidth: 0
Flags: HW
LayerCount: 2
Fore
SplineSet
557 0 m 1
 557 688 l 1
 691 688 l 1
 691 0 l 1
 557 0 l 1
327 266 m 1
 327 326 l 5
 530 688 l 1
 647 688 l 1
 427 266 l 1
 327 266 l 1
325 266 m 1
 101 688 l 1
 223 688 l 1
 425 333 l 5
 425 266 l 1
 325 266 l 1
60 0 m 1
 60 688 l 1
 194 688 l 1
 194 0 l 1
 60 0 l 1
EndSplineSet
EndChar

StartChar: O
Encoding: 79 79 13
Width: 788
VWidth: 0
Flags: HW
LayerCount: 2
Fore
SplineSet
394 705 m 3
 638.69140625 705 768 538.087009006 768 346 c 3
 768 151.690561148 638.69140625 -17 394 -17 c 3
 149.30859375 -17 20 151.690561148 20 346 c 3
 20 538.087009006 149.30859375 705 394 705 c 3
394 584 m 3
 235.959480728 584 153 468.999593099 153 346 c 3
 153 220.933025422 235.959480728 104 394 104 c 7
 552.040519272 104 635 220.933025422 635 346 c 3
 635 468.999593099 552.040519272 584 394 584 c 3
EndSplineSet
EndChar

StartChar: P
Encoding: 80 80 14
Width: 566
VWidth: 0
Flags: HW
LayerCount: 2
Fore
SplineSet
324 381 m 5
 325 261 l 5
 142 261 l 1
 142 381 l 1
 324 381 l 5
331 688 m 5
 324 566 l 5
 142 566 l 1
 142 688 l 1
 331 688 l 5
60 0 m 1
 60 688 l 1
 194 688 l 1
 194 0 l 1
 60 0 l 1
331 688 m 5
 476.442223837 688 551 596.690501493 551 477 c 7
 551 354.114271831 474.379065328 261 325 261 c 5
 324 381 l 5
 388.069233905 381 416 421.958288434 416 475 c 7
 416 525.419433594 388.069233905 566 324 566 c 5
 331 688 l 5
EndSplineSet
EndChar

StartChar: Q
Encoding: 81 81 15
Width: 778
VWidth: 0
Flags: HW
LayerCount: 2
Fore
SplineSet
618 -60 m 5
 361 228 l 5
 452 304 l 5
 709 16 l 5
 618 -60 l 5
EndSplineSet
Refer: 13 79 N 1 0 0 1 0 0 2
EndChar

StartChar: R
Encoding: 82 82 16
Width: 581
VWidth: 0
Flags: HW
LayerCount: 2
Fore
SplineSet
367 383 m 1
 367 268 l 1
 142 268 l 1
 142 383 l 1
 367 383 l 1
332 688 m 1
 325 566 l 1
 142 566 l 1
 142 688 l 1
 332 688 l 1
60 0 m 1
 60 688 l 1
 194 688 l 1
 194 0 l 1
 60 0 l 1
332 688 m 1
 474.695601342 688 551 599.302439024 551 479 c 3
 551 360.708177649 478.213114755 268 311 268 c 5
 325 383 l 1
 388.372829189 383 416 423.522561961 416 476 c 3
 416 525.865373884 388.372829189 566 325 566 c 1
 332 688 l 1
402 0 m 1
 257 316 l 1
 404 316 l 1
 551 0 l 1
 402 0 l 1
EndSplineSet
EndChar

StartChar: U
Encoding: 85 85 17
Width: 624
VWidth: 0
Flags: HW
LayerCount: 2
Fore
SplineSet
192 240 m 2
 192 155.22176296 231.837791314 107 312 107 c 7
 392.162208686 107 432 155.22176296 432 240 c 2
 432 688 l 1
 566 688 l 1
 566 229 l 2
 566 75.9666992187 478.180578807 -17 312 -17 c 7
 145.819421193 -17 58 75.9666992188 58 229 c 2
 58 688 l 1
 192 688 l 1
 192 240 l 2
EndSplineSet
EndChar

StartChar: V
Encoding: 86 86 18
Width: 601
VWidth: 0
Flags: HW
LayerCount: 2
Fore
SplineSet
261 0 m 5
 451 688 l 1
 593 688 l 1
 392 0 l 5
 261 0 l 5
207 0 m 5
 8 688 l 1
 154 688 l 1
 342 0 l 5
 207 0 l 5
EndSplineSet
EndChar

StartChar: Z
Encoding: 90 90 19
Width: 545
VWidth: 0
Flags: HW
LayerCount: 2
Fore
SplineSet
21 24 m 5
 103 121 l 1
 545 121 l 1
 511 0 l 1
 21 0 l 1
 21 24 l 5
523 664 m 1
 440 567 l 1
 24 567 l 1
 58 688 l 1
 523 688 l 1
 523 664 l 1
21 24 m 5
 365 653 l 1
 523 664 l 1
 179 37 l 5
 21 24 l 5
EndSplineSet
EndChar

StartChar: W
Encoding: 87 87 21
Width: 895
VWidth: 0
Flags: HW
LayerCount: 2
Fore
SplineSet
606 0 m 1
 734 688 l 1
 870 688 l 1
 731 0 l 5
 606 0 l 1
564 0 m 5
 400 688 l 1
 523 688 l 1
 692 0 l 1
 564 0 l 5
205 0 m 1
 376 688 l 1
 493 688 l 1
 326 0 l 1
 205 0 l 1
162 0 m 1
 25 688 l 1
 165 688 l 1
 291 0 l 1
 162 0 l 1
EndSplineSet
EndChar

StartChar: Y
Encoding: 89 89 22
Width: 557
VWidth: 0
Flags: HW
LayerCount: 2
Fore
SplineSet
212 0 m 1
 212 328 l 1
 346 328 l 1
 346 0 l 1
 212 0 l 1
215 251 m 1
 416 688 l 1
 562 688 l 1
 342 243 l 5
 215 251 l 1
214 241 m 5
 -5 688 l 1
 145 688 l 1
 346 254 l 1
 214 241 l 5
EndSplineSet
EndChar

StartChar: X
Encoding: 88 88 23
Width: 588
VWidth: 0
Flags: HW
LayerCount: 2
Back
SplineSet
152 0 m 1
 0 0 l 1
 430 688 l 5
 581 688 l 1
 152 0 l 1
439 0 m 1
 17 688 l 1
 173 688 l 1
 594 0 l 1
 439 0 l 1
EndSplineSet
Fore
SplineSet
152 0 m 1
 0 0 l 1
 204.015625 355.854492188 l 1
 17 688 l 1
 173 688 l 1
 301.1953125 450.426757812 l 1
 430 688 l 5
 581 688 l 1
 390.020507812 357.194335938 l 1
 594 0 l 1
 439 0 l 1
 292.840820312 262.62109375 l 1
 152 0 l 1
EndSplineSet
EndChar

StartChar: S
Encoding: 83 83 24
Width: 505
VWidth: 0
Flags: HW
LayerCount: 2
Fore
SplineSet
462 667 m 1
 431 542 l 1
 372.388157895 570.194444444 325.197747481 577 280 577 c 3
 211.616071429 577 169 554.302631579 169 502 c 3
 169 461.482421875 193 444.896551724 258 418 c 2
 316 394 l 2
 422 350.137931034 485 304 485 198 c 3
 485 60.6602870813 392 -10 241 -10 c 3
 162.838867188 -10 91.0146484375 9.10904296875 42 39 c 1
 42 174 l 1
 102 132.636363636 177 109 250 109 c 3
 314.362745098 109 351 132.707596009 351 190 c 3
 351 228 321.184041451 246.547357513 249 277 c 2
 185 304 l 2
 103.627836788 338.328881355 35 375.6328125 35 499 c 3
 35 621.388886719 133 698 289 698 c 3
 356.562589799 698 424.124208648 684.848083496 462 667 c 1
EndSplineSet
EndChar

StartChar: K
Encoding: 75 75 25
Width: 591
VWidth: 0
Flags: HW
LayerCount: 2
Fore
SplineSet
160 360 m 1
 327 360 l 1
 601 0 l 1
 431 0 l 1
 160 360 l 1
161 351 m 1
 426 688 l 1
 587 688 l 1
 322 351 l 1
 161 351 l 1
60 0 m 1
 60 688 l 1
 194 688 l 1
 194 0 l 1
 60 0 l 1
EndSplineSet
EndChar

StartChar: J
Encoding: 74 74 26
Width: 476
VWidth: 0
Flags: HW
LayerCount: 2
Fore
SplineSet
354 688 m 5
 354 565 l 5
 46 565 l 5
 78 688 l 5
 354 688 l 5
35 147 m 1
 76.4951171875 126.076171875 113.338867188 115 162 115 c 3
 240.080078125 115 284 149 284 228 c 2
 284 688 l 1
 418 688 l 1
 418 217 l 2
 418 65 334.424804688 -9 176 -9 c 3
 125.143554688 -9 64.1728515625 1.73046875 35 22 c 1
 35 147 l 1
EndSplineSet
EndChar

StartChar: Odieresis
Encoding: 214 214 27
Width: 778
VWidth: 0
Flags: HW
LayerCount: 2
Fore
SplineSet
429 750 m 1
 429 883 l 1
 563 883 l 1
 563 750 l 1
 429 750 l 1
225 750 m 5
 225 883 l 5
 359 883 l 5
 359 750 l 5
 225 750 l 5
EndSplineSet
Refer: 13 79 N 1 0 0 1 0 0 2
EndChar

StartChar: o
Encoding: 111 111 28
Width: 587
VWidth: 0
Flags: HW
LayerCount: 2
Fore
SplineSet
294 518 m 3
 465.567074233 518 564 402 564 252 c 3
 564 101 465.567074233 -15 294 -15 c 3
 122.432925767 -15 24 101 24 252 c 3
 24 402 122.432925767 518 294 518 c 3
294 404 m 3
 202.461914062 404 154 334.093200279 154 252 c 3
 154 169.91354852 202.461914062 99 294 99 c 7
 385.538085938 99 434 169.91354852 434 252 c 3
 434 334.093200279 385.538085938 404 294 404 c 3
EndSplineSet
EndChar

StartChar: i
Encoding: 105 105 29
Width: 237
VWidth: 0
Flags: HW
LayerCount: 2
Fore
SplineSet
54 583 m 5
 54 703 l 5
 183 703 l 5
 183 583 l 5
 54 583 l 5
54 0 m 1
 54 503 l 1
 183 503 l 1
 183 0 l 1
 54 0 l 1
EndSplineSet
EndChar

StartChar: hyphen
Encoding: 45 45 30
Width: 384
VWidth: 0
Flags: HW
LayerCount: 2
Fore
SplineSet
354 363 m 5
 354 239 l 5
 18 239 l 1
 50 363 l 1
 354 363 l 5
EndSplineSet
EndChar

StartChar: l
Encoding: 108 108 31
Width: 237
VWidth: 0
Flags: HW
LayerCount: 2
Fore
SplineSet
54 0 m 1
 54 718 l 5
 183 718 l 5
 183 0 l 1
 54 0 l 1
EndSplineSet
EndChar

StartChar: n
Encoding: 110 110 32
Width: 544
VWidth: 0
Flags: HW
LayerCount: 2
Fore
SplineSet
54 0 m 1
 54 503 l 1
 179 503 l 1
 180 360 l 1
 183 360 l 1
 183 0 l 1
 54 0 l 1
160 340 m 1
 160 444.453125 227.334960938 513 332 513 c 7
 434.52734375 513 496 444 496 339 c 2
 496 0 l 1
 367 0 l 1
 367 299 l 2
 367 357.397460938 338.674804688 396 280 396 c 3
 218.6328125 396 183 356.6484375 183 284 c 1
 160 340 l 1
EndSplineSet
EndChar

StartChar: h
Encoding: 104 104 33
Width: 544
VWidth: 0
Flags: HW
LayerCount: 2
Fore
SplineSet
160 340 m 1
 160 444.453125 227.334960938 513 332 513 c 7
 434.52734375 513 496 444 496 339 c 2
 496 0 l 1
 367 0 l 1
 367 299 l 2
 367 357.397460938 338.674804688 396 280 396 c 3
 218.6328125 396 183 356.6484375 183 284 c 1
 160 340 l 1
54 0 m 1
 54 718 l 1
 183 718 l 1
 183 0 l 1
 54 0 l 1
EndSplineSet
EndChar

StartChar: a
Encoding: 97 97 34
Width: 493
VWidth: 0
Flags: HWO
LayerCount: 2
Fore
SplineSet
318 316 m 1
 318 367.373835184 281.022460938 401 206 401 c 3
 146.764331211 401 100.099378882 384.257142857 51 359 c 5
 82 479 l 5
 120.240207981 499.9 174.449040593 512 233 512 c 3
 379.086914062 512 445 441.599609375 445 336 c 1
 318 316 l 1
445 336 m 1
 445 0 l 1
 322 0 l 1
 321 143 l 1
 318 143 l 1
 318 316 l 1
 445 336 l 1
152 159 m 3
 152 122 179.713867188 100 224 100 c 3
 284.9296875 100 318 135.255859375 318 201 c 1
 335 149 l 1
 335 53.9453125 276.215820312 -8 185 -8 c 3
 80.0458984375 -8 23 57 23 144 c 3
 23 279.619140625 147.986321169 297.154377657 250.7890625 306.006835938 c 2
 332 313 l 1
 332 223 l 1
 236.8515625 215.999023438 l 2
 186.975580716 212.329172533 152 194.909179688 152 159 c 3
EndSplineSet
EndChar

StartChar: u
Encoding: 117 117 35
Width: 540
VWidth: 0
Flags: HW
LayerCount: 2
Fore
SplineSet
486 503 m 1
 486 0 l 1
 361 0 l 1
 360 143 l 1
 357 143 l 1
 357 503 l 1
 486 503 l 1
374 150 m 1
 374 54 317.12109375 -9 213 -9 c 3
 108.736328125 -9 48 60.5908203125 48 166 c 2
 48 503 l 1
 177 503 l 1
 177 205 l 2
 177 147.204101562 204.674804688 109 262 109 c 3
 322.1015625 109 357 148 357 220 c 1
 374 150 l 1
EndSplineSet
EndChar

StartChar: b
Encoding: 98 98 36
Width: 606
VWidth: 0
Flags: HW
LayerCount: 2
Fore
SplineSet
183 143 m 1
 183 202 l 1
 182 202 l 1
 182 302 l 1
 183 302 l 1
 183 718 l 1
 54 718 l 1
 54 0 l 1
 179 0 l 1
 180 143 l 1
 183 143 l 1
342 515 m 3
 224.592773438 515 151 429.221679688 151 322 c 1
 151 182 l 1
 151 74.71875 223.80859375 -12 342 -12 c 3
 492.673705544 -12 582 102.696289062 582 252 c 7
 582 400.30859375 492.673705544 515 342 515 c 3
317 401 m 3
 405.26953125 401 452 334.446289062 452 252 c 3
 452 169.549804688 405.26953125 102 317 102 c 3
 228.73046875 102 182 169.549804688 182 252 c 3
 182 334.446289062 228.73046875 401 317 401 c 3
EndSplineSet
EndChar

StartChar: d
Encoding: 100 100 37
Width: 606
VWidth: 0
Flags: HW
LayerCount: 2
Fore
SplineSet
423 143 m 5
 423 202 l 5
 424 202 l 5
 424 302 l 5
 423 302 l 5
 423 718 l 5
 552 718 l 5
 552 0 l 5
 427 0 l 5
 426 143 l 5
 423 143 l 5
269 515 m 7
 381.352539062 515 455 429.221679688 455 322 c 5
 455 182 l 21
 455 74.71875 382.13671875 -12 269 -12 c 7
 113.318667553 -12 24 102.696289062 24 252 c 3
 24 400.30859375 113.318667553 515 269 515 c 7
289 401 m 7
 200.73046875 401 154 334.446289062 154 252 c 7
 154 169.549804688 200.73046875 102 289 102 c 7
 377.26953125 102 424 169.549804688 424 252 c 7
 424 334.446289062 377.26953125 401 289 401 c 7
EndSplineSet
EndChar

StartChar: p
Encoding: 112 112 38
Width: 606
VWidth: 0
Flags: HW
LayerCount: 2
Fore
SplineSet
183 360 m 1
 183 301 l 1
 182 301 l 1
 182 201 l 1
 183 201 l 1
 183 -165 l 1
 54 -165 l 1
 54 503 l 1
 179 503 l 1
 180 360 l 1
 183 360 l 1
342 -12 m 3
 224.647460938 -12 151 73.7783203125 151 181 c 1
 151 321 l 1
 151 428.28125 223.86328125 515 343 515 c 3
 492.672141708 515 582 400.303710938 582 251 c 3
 582 102.69140625 492.673705544 -12 342 -12 c 3
317 102 m 3
 405.26953125 102 452 168.553710938 452 251 c 3
 452 333.450195312 405.26953125 401 317 401 c 3
 228.73046875 401 182 333.450195312 182 251 c 3
 182 168.553710938 228.73046875 102 317 102 c 3
EndSplineSet
EndChar

StartChar: q
Encoding: 113 113 39
Width: 606
VWidth: 0
Flags: HW
LayerCount: 2
Fore
SplineSet
423 360 m 1
 423 301 l 1
 424 301 l 1
 424 201 l 1
 423 201 l 1
 423 -165 l 1
 552 -165 l 1
 552 503 l 1
 427 503 l 1
 426 360 l 1
 423 360 l 1
264 -12 m 3
 381.352539062 -12 455 73.7783203125 455 181 c 1
 455 322 l 1
 455 428.727539062 382.13671875 515 264 515 c 3
 113.326294456 515 24 400.303710938 24 251 c 3
 24 102.69140625 113.326294456 -12 264 -12 c 3
289 102 m 3
 200.73046875 102 154 168.553710938 154 251 c 3
 154 333.450195312 200.73046875 401 289 401 c 3
 377.26953125 401 424 333.450195312 424 251 c 3
 424 168.553710938 377.26953125 102 289 102 c 3
EndSplineSet
EndChar

StartChar: t
Encoding: 116 116 40
Width: 346
VWidth: 0
Flags: HW
LayerCount: 2
Fore
SplineSet
320 395 m 1
 -1 395 l 1
 -1 418 l 1
 176 608 l 5
 176 503 l 1
 320 503 l 1
 320 395 l 1
72 146 m 2
 72 433 l 1
 176 608 l 5
 201 608 l 5
 201 176 l 2
 201 125 216.7578125 109 271 109 c 3
 287 109 305.888671875 112.22265625 322 118 c 1
 322 8 l 1
 306.106445312 0.2001953125 268 -5 241 -5 c 3
 127.309570312 -5 72 38 72 146 c 2
EndSplineSet
EndChar

StartChar: e
Encoding: 101 101 41
Width: 545
VWidth: 0
Flags: HW
LayerCount: 2
Fore
SplineSet
92 298 m 1
 450 298 l 1
 450 205 l 1
 94 205 l 1
 92 298 l 1
492 24 m 1
 451 1.09550280449 380 -13 309 -13 c 3
 124 -13 24 92.2055370359 24 252 c 3
 24 397.436523438 117.728515625 517 284 517 c 3
 431.566282634 517 517 408.4453125 517 273 c 3
 517 249.34765625 516.25 227.666992188 514 205 c 1
 384 205 l 1
 387 226.685546875 389 249.357421875 389 274 c 3
 389 347.439453125 354.592703683 405 281 405 c 3
 198.354492188 405 153 344.3984375 153 253 c 3
 153 163.422077922 200 98 320 98 c 3
 372 98 439.306513499 112.721124822 492 141 c 1
 492 24 l 1
EndSplineSet
EndChar

StartChar: s
Encoding: 115 115 42
Width: 418
VWidth: 0
Flags: HW
LayerCount: 2
Fore
SplineSet
380 490 m 1
 351 379 l 1
 308.118164062 401 269 406 236 406 c 3
 179 406 156 392 156 368 c 3
 156 347.975524026 162.529803475 337.388498943 204.420898438 321.404296875 c 2
 271 296 l 2
 353.489635667 264.524790146 398 228.903173509 398 142 c 3
 398 44.3740234375 328 -14 202 -14 c 3
 134.212890625 -14 75.8056640625 2 39 24 c 1
 39 143 l 1
 90 111 148 94 204 94 c 3
 251 94 272 108.349609375 272 135 c 3
 272 155.18018898 256.519378762 169.907380389 219.310546875 184.375976562 c 2
 142.860351562 214.103515625 l 2
 84.6726031004 236.729730748 30 268.318723805 30 362 c 3
 30 457 102 517 240 517 c 3
 295 517 348 506 380 490 c 1
EndSplineSet
EndChar

StartChar: c
Encoding: 99 99 43
Width: 465
VWidth: 0
Flags: HW
LayerCount: 2
Fore
SplineSet
416 380 m 1
 388.142578125 389.599609375 359.357421875 398 312 398 c 3
 245.251560043 398 154 366.248046875 154 253 c 7
 154 144.887695312 238.124739583 101 318 101 c 3
 360.591796875 101 411.896484375 112.458007812 439 126 c 1
 439 10 l 1
 415.732421875 -0.953125 369.19921875 -13 312 -13 c 3
 183.7734375 -13 24 49.380859375 24 249 c 3
 24 465.290039062 202.962890625 516 326 516 c 3
 381.537109375 516 426.165039062 502.875 446 495 c 1
 416 380 l 1
EndSplineSet
EndChar

StartChar: r
Encoding: 114 114 44
Width: 360
VWidth: 0
Flags: HW
LayerCount: 2
Fore
SplineSet
54 0 m 1
 54 503 l 1
 176 503 l 1
 177 360 l 1
 183 360 l 1
 183 0 l 1
 54 0 l 1
331 361 m 1
 304 371.704561121 285.1171875 376 266 376 c 3
 217.583333333 376 183 346 183 259 c 1
 155 274 l 1
 155 410 201.254306102 510 291 510 c 3
 319 510 345 502 365 490 c 1
 331 361 l 1
EndSplineSet
EndChar

StartChar: v
Encoding: 118 118 45
Width: 519
VWidth: 0
Flags: HW
LayerCount: 2
Fore
SplineSet
344 0 m 5
 223 0 l 5
 375 503 l 1
 509 503 l 1
 344 0 l 5
173 0 m 5
 10 503 l 1
 149 503 l 1
 301 0 l 5
 173 0 l 5
EndSplineSet
EndChar

StartChar: m
Encoding: 109 109 46
Width: 817
VWidth: 0
Flags: HW
LayerCount: 2
Fore
SplineSet
435 321 m 1
 435 436.321289062 506.8359375 512 612 512 c 3
 710.471679688 512 769 445.3984375 769 345 c 2
 769 0 l 1
 640 0 l 1
 640 305 l 2
 640 359.786621094 614.930664062 396 563 396 c 7
 507.958984375 396 476 357.703342014 476 287 c 1
 435 321 l 1
54 0 m 1
 54 503 l 1
 179 503 l 1
 180 360 l 1
 183 360 l 1
 183 0 l 1
 54 0 l 1
162 344 m 1
 162 445.434570312 226.892578125 512 319 512 c 3
 417.471679688 512 476 445.3984375 476 345 c 2
 476 0 l 1
 347 0 l 1
 347 305 l 2
 347 359.786621094 321.930664062 396 270 396 c 7
 214.958984375 396 183 357.703342014 183 287 c 1
 162 344 l 1
EndSplineSet
EndChar

StartChar: f
Encoding: 102 102 47
Width: 346
VWidth: 0
Flags: HW
LayerCount: 2
Fore
SplineSet
24 503 m 1
 337 503 l 5
 337 395 l 5
 4 395 l 1
 24 503 l 1
82 553 m 2
 82 697.59375 188.359375 725 258 725 c 3
 287.075195312 725 307.165039062 721.571289062 321 717 c 1
 342 605 l 1
 328.42578125 607.799804688 306.212890625 612 284 612 c 3
 244.892578125 612 211 598.162109375 211 548 c 2
 211 0 l 1
 82 0 l 1
 82 553 l 2
EndSplineSet
EndChar

StartChar: g
Encoding: 103 103 48
Width: 601
VWidth: 0
Flags: HW
LayerCount: 2
Fore
SplineSet
418 360 m 1
 418 317 l 1
 419 317 l 1
 419 215 l 1
 418 215 l 1
 418 58 l 2
 418 -32 356.847222222 -68 269 -68 c 3
 209.632653061 -68 133.394334846 -49.6081957547 78 -8 c 1
 78 -130 l 1
 124 -160 199 -176 271 -176 c 3
 459.381818182 -176 547 -85 547 67 c 2
 547 503 l 1
 422 503 l 1
 421 360 l 1
 418 360 l 1
262 18 m 3
 377.509765625 18 450 103.778320312 450 211 c 1
 450 322 l 1
 450 428.727539062 378.282226562 515 262 515 c 3
 112.582279529 515 24 406.820426695 24 266 c 3
 24 126.149955719 112.582279529 18 262 18 c 3
287 132 m 3
 199.385683002 132 153 191.853897439 153 266 c 3
 153 340.204939657 199.385683002 401 287 401 c 3
 373.306640625 401 419 340.204939657 419 266 c 3
 419 191.853897439 373.306640625 132 287 132 c 3
EndSplineSet
EndChar

StartChar: j
Encoding: 106 106 49
Width: 237
VWidth: 0
Flags: HW
LayerCount: 2
Fore
SplineSet
54 583 m 1
 54 703 l 1
 183 703 l 1
 183 583 l 1
 54 583 l 1
54 12 m 2
 54 503 l 1
 183 503 l 1
 183 15 l 2
 183 -116.186523438 119 -165 20 -165 c 3
 -0.96875 -165 -28.609375 -161.4 -41 -156 c 5
 -41 -48 l 5
 -28.9136827257 -50.8796875 -14.2895236545 -52 -6 -52 c 3
 34 -52 54 -28.91796875 54 12 c 2
EndSplineSet
EndChar

StartChar: k
Encoding: 107 107 50
Width: 511
VWidth: 0
Flags: HW
LayerCount: 2
Fore
SplineSet
162 261 m 5
 286 304 l 5
 512 0 l 1
 351 0 l 1
 162 261 l 5
157 261 m 5
 354 503 l 1
 507 503 l 1
 286 230 l 5
 157 261 l 5
54 0 m 1
 54 718 l 1
 183 718 l 1
 183 0 l 1
 54 0 l 1
EndSplineSet
EndChar

StartChar: w
Encoding: 119 119 51
Width: 750
VWidth: 0
Flags: HW
LayerCount: 2
Fore
SplineSet
618 0 m 1
 507 0 l 1
 612 503 l 5
 740 503 l 1
 618 0 l 1
475 0 m 1
 330 503 l 1
 443 503 l 1
 588 0 l 5
 475 0 l 1
273 0 m 1
 167 0 l 1
 312 503 l 1
 420 503 l 1
 273 0 l 1
130 0 m 1
 10 503 l 1
 143 503 l 1
 248 0 l 1
 130 0 l 1
EndSplineSet
EndChar

StartChar: x
Encoding: 120 120 52
Width: 500
VWidth: 0
Flags: HW
LayerCount: 2
Back
SplineSet
143 0 m 5
 -1 0 l 5
 347 503 l 5
 490 503 l 5
 143 0 l 5
353 0 m 5
 14 503 l 5
 163 503 l 5
 501 0 l 5
 353 0 l 5
EndSplineSet
Fore
SplineSet
143 0 m 1
 -1 0 l 1
 167.318359375 259.1875 l 1
 14 503 l 1
 163 503 l 1
 253.659179688 348.084960938 l 5
 347 503 l 1
 490 503 l 1
 335.3515625 262.881835938 l 1
 501 0 l 1
 353 0 l 1
 249.224609375 173.979492188 l 1
 143 0 l 1
EndSplineSet
EndChar

StartChar: y
Encoding: 121 121 53
Width: 486
VWidth: 0
Flags: HW
LayerCount: 2
Back
SplineSet
315 7 m 2
 276 -109 228 -168 121 -168 c 3
 81.5760869565 -168 46.1956521739 -159 28 -150 c 5
 28 -37 l 5
 49.2763157895 -45 78.6578947368 -53 105 -53 c 3
 155 -53 179 -20 184 19 c 2
 188 50 l 1
 214 50 l 1
 351 503 l 1
 482 503 l 1
 330 50 l 1
 315 7 l 2
7 503 m 1
 148 503 l 1
 293 50 l 1
 203 -49 l 1
 168 50 l 1
 7 503 l 1
EndSplineSet
Fore
SplineSet
315.458984375 6.501953125 m 2
 276.744728681 -108.914373994 228.134765625 -168 121 -168 c 3
 79.5777777778 -168 45.3913043478 -158.999945747 27 -149 c 1
 27 -36 l 1
 47.4473684211 -45.0001220703 76.6712328767 -53 101 -53 c 3
 155 -53 178.968270215 -19.9959058342 184 19 c 2
 188 50 l 1
 214 50 l 1
 351 503 l 1
 482 503 l 1
 315.458984375 6.501953125 l 2
7 503 m 1
 148 503 l 1
 293 50 l 1
 203 -49 l 1
 7 503 l 1
EndSplineSet
EndChar

StartChar: z
Encoding: 122 122 54
Width: 441
VWidth: 0
Flags: HW
LayerCount: 2
Fore
SplineSet
14 22 m 5
 94 112 l 1
 446 112 l 1
 411 0 l 1
 14 0 l 1
 14 22 l 5
425 481 m 1
 344 391 l 1
 16 391 l 1
 51 503 l 1
 425 503 l 1
 425 481 l 1
14 22 m 5
 276 470 l 1
 425 481 l 1
 163 35 l 5
 14 22 l 5
EndSplineSet
EndChar

StartChar: period
Encoding: 46 46 55
Width: 224
VWidth: 0
Flags: HW
LayerCount: 2
Fore
SplineSet
45 0 m 1
 45 133 l 1
 179 133 l 5
 179 0 l 5
 45 0 l 1
EndSplineSet
EndChar

StartChar: comma
Encoding: 44 44 56
Width: 224
VWidth: 0
Flags: HW
LayerCount: 2
Fore
SplineSet
3 -155 m 1
 65 141 l 1
 202 141 l 1
 104 -155 l 1
 3 -155 l 1
EndSplineSet
EndChar

StartChar: two
Encoding: 50 50 57
Width: 550
VWidth: 0
Flags: HW
LayerCount: 2
Fore
SplineSet
39 0 m 1
 143 121 l 1
 529 121 l 1
 497 0 l 1
 39 0 l 1
48 518 m 1
 82 647 l 1
 123.329787233 674.621763931 183.26548995 697 267 697 c 3
 397.047489665 697 495 635.988764045 495 511 c 3
 495 438.196589488 465.970634417 380.033235936 368.55078125 293.958007812 c 2
 269 206 l 2
 219.715040362 162.454315974 207.900431344 140.934579439 202 88 c 1
 39 0 l 1
 39 32 l 2
 39 115 86.8934276708 204.341132402 196.064453125 302.57421875 c 2
 281 379 l 2
 349 440.187021409 360 460.608173793 360 502 c 3
 360 553.598015738 315 576 252 576 c 3
 167.625233154 576 109.398058252 553.766666667 48 518 c 1
EndSplineSet
EndChar

StartChar: one
Encoding: 49 49 58
Width: 550
VWidth: 0
Flags: HW
LayerCount: 2
Back
SplineSet
292 688 m 5
 349 483 l 5
 86 483 l 5
 86 582 l 5
 227.2265625 592.5 259 604 292 688 c 5
264 0 m 5
 264 591 l 5
 292 688 l 5
 398 688 l 5
 398 0 l 5
 264 0 l 5
EndSplineSet
Fore
SplineSet
332 688 m 1
 332 565 l 1
 72 565 l 5
 104 688 l 5
 332 688 l 1
264 0 m 1
 264 688 l 1
 398 688 l 1
 398 0 l 1
 264 0 l 1
EndSplineSet
EndChar

StartChar: three
Encoding: 51 51 59
Width: 550
VWidth: 0
Flags: HW
LayerCount: 2
Fore
SplineSet
510 202 m 7
 510 73.7523809524 407.373271889 -8 257 -8 c 7
 168.299670917 -8 97.0101522843 13.84 51 44 c 5
 51 173 l 5
 117 135 168.83902439 112 254 112 c 7
 316.544710202 112 371 139.846109704 371 203 c 7
 371 278.186915888 279.432692308 301.01980198 157 302 c 5
 185 408 l 5
 276 379 l 5
 379.209125476 379 510 327.219512195 510 202 c 7
354 498 m 7
 354 553.375 300.434782609 579 238 579 c 7
 169.359375 579 104.485436893 556.766666667 47 521 c 5
 81 650 l 5
 123.446808511 675.964458095 182.236373938 697 271 697 c 7
 394.826043099 697 492 635.988764045 492 524 c 7
 492 405.333333333 384.745247148 346 328 346 c 5
 185 408 l 5
 279.212643678 410.02247191 354 427 354 498 c 7
EndSplineSet
EndChar

StartChar: zero
Encoding: 48 48 60
Width: 550
VWidth: 0
Flags: HW
LayerCount: 2
Fore
SplineSet
274 700 m 3
 438.218185016 700 525 584.854492188 525 346 c 3
 525 104.91796875 438.218185016 -12 274 -12 c 3
 111.090405556 -12 25 104.91796875 25 346 c 3
 25 584.854492188 111.090405556 700 274 700 c 3
274 579 m 3
 197.930741567 579 158 515.575195312 158 346 c 3
 158 174.342773438 197.930741567 109 274 109 c 3
 351.380783081 109 392 174.342773438 392 346 c 3
 392 515.575195312 351.380783081 579 274 579 c 3
EndSplineSet
EndChar

StartChar: four
Encoding: 52 52 61
Width: 550
VWidth: 0
Flags: HW
LayerCount: 2
Fore
SplineSet
10 275 m 1
 555 275 l 1
 533 160 l 1
 10 160 l 1
 10 275 l 1
327 0 m 1
 327 688 l 1
 461 688 l 1
 461 0 l 1
 327 0 l 1
10 275 m 5
 276 688 l 5
 403 688 l 5
 143 275 l 5
 10 275 l 5
EndSplineSet
EndChar

StartChar: five
Encoding: 53 53 62
Width: 550
VWidth: 0
Flags: HW
LayerCount: 2
Fore
SplineSet
60 371 m 1
 106 688 l 1
 226 688 l 1
 179 371 l 1
 60 371 l 1
105 565 m 1
 106 688 l 1
 485 688 l 1
 452 565 l 1
 105 565 l 1
511 230 m 3
 511 84 403.915928927 -8 242 -8 c 3
 159.041561403 -8 87.4467005077 13.42 43 43 c 5
 43 172 l 5
 103.796116505 135 163.073466435 112 245 112 c 3
 315.462121212 112 376 143.824125376 376 218 c 3
 376 300.291489443 305 327 221 327 c 3
 165.112716448 327 94.8117647059 316 48 301 c 1
 64 399 l 1
 108.954773869 415.918011944 192.009852217 440 277 440 c 3
 406.375593355 440 511 366 511 230 c 3
EndSplineSet
EndChar

StartChar: seven
Encoding: 55 55 64
Width: 550
VWidth: 0
Flags: HW
LayerCount: 2
Fore
SplineSet
535 688 m 1
 535 664 l 5
 455 565 l 1
 17 565 l 1
 50 688 l 1
 535 688 l 1
85 0 m 1
 397 664 l 5
 535 664 l 5
 231 0 l 1
 85 0 l 1
EndSplineSet
EndChar

StartChar: eight
Encoding: 56 56 65
Width: 550
VWidth: 0
Flags: HW
LayerCount: 2
Fore
SplineSet
275 -12 m 5
 115 -12 23 75.5532994924 23 184 c 3
 23 271 76 337 199 376 c 2
 250 392 l 2
 336 419 374 453 374 501 c 3
 374 547 334 582 275 582 c 1
 275 699 l 1
 418 699 506 614 506 509 c 3
 506 429 439 358 335 325 c 2
 281 308 l 2
 195 281 156 247 156 199 c 3
 156 147.559139785 202 107 275 107 c 5
 275 -12 l 5
275 -12 m 5
 275 107 l 5
 348 107 394 147.544444444 394 196 c 3
 394 245 354 278 262 307 c 2
 208 324 l 2
 103 357 44 428 44 508 c 3
 44 611 132 699 275 699 c 1
 275 582 l 1
 216 582 176 547 176 503 c 3
 176 455 214 422 301 395 c 2
 352 379 l 2
 481 339 527 272 527 188 c 3
 527 80.5373134328 435 -12 275 -12 c 5
EndSplineSet
EndChar

